<?xml version="1.0" encoding="UTF-8" standalone="no"?>
<!-- Created with Inkscape (http://www.inkscape.org/) -->

<svg
   xmlns:dc="http://purl.org/dc/elements/1.1/"
   xmlns:cc="http://creativecommons.org/ns#"
   xmlns:rdf="http://www.w3.org/1999/02/22-rdf-syntax-ns#"
   xmlns:svg="http://www.w3.org/2000/svg"
   xmlns="http://www.w3.org/2000/svg"
   xmlns:xlink="http://www.w3.org/1999/xlink"
   xmlns:sodipodi="http://sodipodi.sourceforge.net/DTD/sodipodi-0.dtd"
   xmlns:inkscape="http://www.inkscape.org/namespaces/inkscape"
   width="210mm"
   height="297mm"
   viewBox="0 0 210 297"
   version="1.1"
   id="svg913"
   inkscape:version="0.92.4 (5da689c313, 2019-01-14)"
   sodipodi:docname="title.svg">
  <defs
     id="defs907">
    <radialGradient
       inkscape:collect="always"
       xlink:href="#linearGradient933"
       id="radialGradient908"
       cx="90.160545"
       cy="83.521385"
       fx="90.160545"
       fy="83.521385"
       r="57.85778"
       gradientTransform="matrix(5.4479623,0,0,1.1793067,-27.061652,-93.455422)"
       gradientUnits="userSpaceOnUse" />
    <linearGradient
       inkscape:collect="always"
       id="linearGradient933">
      <stop
         style="stop-color:#c9a809;stop-opacity:1"
         offset="0"
         id="stop929" />
      <stop
         style="stop-color:#ffe770;stop-opacity:1"
         offset="1"
         id="stop931" />
    </linearGradient>
    <radialGradient
       inkscape:collect="always"
       xlink:href="#linearGradient933"
       id="radialGradient858"
       cx="90.160545"
       cy="83.521385"
       fx="90.160545"
       fy="83.521385"
       r="57.85778"
       gradientTransform="matrix(1,0,0,0.21646749,1.5268003,77.014798)"
       gradientUnits="userSpaceOnUse" />
    <radialGradient
       inkscape:collect="always"
       xlink:href="#linearGradient933"
       id="radialGradient860"
       cx="102.25973"
       cy="36.458839"
       fx="102.25973"
       fy="36.458839"
       r="79.130295"
       gradientTransform="matrix(5.4479625,0,0,0.74834232,-33.49382,-225.3094)"
       gradientUnits="userSpaceOnUse" />
    <radialGradient
       inkscape:collect="always"
       xlink:href="#linearGradient933"
       id="radialGradient873"
       cx="102.25973"
       cy="36.458839"
       fx="102.25973"
       fy="36.458839"
       r="79.130295"
       gradientTransform="matrix(1,0,0,0.13736188,1.2192353,41.652322)"
       gradientUnits="userSpaceOnUse" />
    <radialGradient
       inkscape:collect="always"
       xlink:href="#linearGradient933"
       id="radialGradient903-2"
       cx="32.145348"
       cy="212.44429"
       fx="32.145348"
       fy="212.44429"
       r="47.501835"
       gradientTransform="matrix(-8.5504352,-0.52011552,-0.05360264,0.91638857,1220.8988,-258.60808)"
       gradientUnits="userSpaceOnUse" />
    <radialGradient
       inkscape:collect="always"
       xlink:href="#linearGradient933"
       id="radialGradient903"
       cx="32.145348"
       cy="212.44429"
       fx="32.145348"
       fy="212.44429"
       r="47.501835"
       gradientTransform="matrix(8.5764642,-0.52011552,0.05376583,0.91638857,-144.88142,-258.39761)"
       gradientUnits="userSpaceOnUse" />
  </defs>
  <sodipodi:namedview
     id="base"
     pagecolor="#ffffff"
     bordercolor="#666666"
     borderopacity="1.0"
     inkscape:pageopacity="0.0"
     inkscape:pageshadow="2"
     inkscape:zoom="0.175"
     inkscape:cx="2279.7639"
     inkscape:cy="1048.7282"
     inkscape:document-units="mm"
     inkscape:current-layer="layer1"
     showgrid="false"
     inkscape:window-width="1920"
     inkscape:window-height="1009"
     inkscape:window-x="-8"
     inkscape:window-y="-8"
     inkscape:window-maximized="1" />
  <metadata
     id="metadata910">
    <rdf:RDF>
      <cc:Work
         rdf:about="">
        <dc:format>image/svg+xml</dc:format>
        <dc:type
           rdf:resource="http://purl.org/dc/dcmitype/StillImage" />
        <dc:title />
      </cc:Work>
    </rdf:RDF>
  </metadata>
  <g
     inkscape:label="Calque 1"
     inkscape:groupmode="layer"
     id="layer1">
    <text
       xml:space="preserve"
       style="font-style:normal;font-variant:normal;font-weight:normal;font-stretch:normal;font-size:145.83477783px;line-height:1.25;font-family:'Cheese Donuts';-inkscape-font-specification:'Cheese Donuts, Normal';font-variant-ligatures:normal;font-variant-caps:normal;font-variant-numeric:normal;font-feature-settings:normal;text-align:start;letter-spacing:0px;word-spacing:0px;writing-mode:lr-tb;text-anchor:start;fill:#474747;fill-opacity:0.96788988;stroke:none;stroke-width:3.64586926"
       x="84.468582"
       y="-150.03401"
       id="text832-9"
       transform="scale(1.0320138,0.96897926)"
       inkscape:export-xdpi="96"
       inkscape:export-ydpi="96"><tspan
         sodipodi:role="line"
         id="tspan830-0"
         x="84.468582"
         y="-150.03401"
         style="font-style:normal;font-variant:normal;font-weight:normal;font-stretch:normal;font-size:145.83477783px;font-family:'Cheese Donuts';-inkscape-font-specification:'Cheese Donuts, Normal';font-variant-ligatures:normal;font-variant-caps:normal;font-variant-numeric:normal;font-feature-settings:normal;text-align:start;writing-mode:lr-tb;text-anchor:start;fill:#474747;fill-opacity:0.96788988;stroke-width:3.64586926">The adventure of</tspan></text>
    <path
       style="fill:#4d4d4d;fill-opacity:0.90825686;stroke:none;stroke-width:1.38004696"
       d="m 506.02575,-59.874757 c -2.46782,-1.495068 -9.00964,-6.376156 -14.5372,-10.846745 -17.40624,-10.243465 -10.91795,-7.538718 -28.81856,-12.030492 -41.44762,-10.400455 -93.95767,-15.706197 -156.10523,-15.773355 -58.36171,-0.0627 -75.33593,-1.630031 -98.70667,5.869409 -22.05579,7.077506 -54.18599,22.706236 -60.26261,34.126173 l -2.79409,5.25099 -1.0088,-6.797854 c 0.55891,-2.960271 1.4058,-10.965596 2.81002,-13.700465 2.71508,-5.287866 9.21069,-13.171554 11.905,-13.171554 0.8862,0 5.56977,1.07269 5.14849,0.654092 -2.10087,-2.087275 -58.52001,10.708096 -85.551131,19.402262 -30.387161,9.773603 -45.827644,8.781415 -60.299072,-3.875006 C 11.17552,-76.566066 7.2041202,-79.784196 6.4868083,-93.477257 5.7711692,-105.72406 7.308934,-112.33263 13.093728,-121.10206 c 6.946251,-10.5301 22.944354,-25.18549 24.145462,-24.02466 0.500368,0.4837 -4.236507,9.35788 -5.420974,13.90113 -4.774362,18.30636 -1.839003,31.931658 8.384907,38.92066 14.156138,9.677081 22.808338,10.156642 59.648707,3.306002 114.13082,-21.223122 170.25863,-27.689252 228.86513,-26.366042 53.71797,1.21274 106.10932,9.17181 141.91181,21.558484 18.63111,6.44588 18.738,6.417761 9.10955,-2.396055 -4.88899,-4.475329 -8.28882,-8.505579 -7.55522,-8.956109 0.51688,-0.31757 1.75877,-4.85652 3.33974,-4.43115 5.27088,1.41815 15.21577,11.07807 22.34241,16.187172 11.55759,8.285666 12.84324,13.365524 15.97566,19.582614 7.21884,14.328127 3.56877,20.841426 -7.81499,13.945197 z"
       id="path821-0-8"
       inkscape:connector-curvature="0"
       sodipodi:nodetypes="ccscsscccscsccsccssssccscccc"
       inkscape:export-xdpi="96"
       inkscape:export-ydpi="96" />
    <path
       style="fill:url(#radialGradient903);fill-opacity:1;stroke:none;stroke-width:1.38878417"
       d="m 508.78162,-63.714416 c -2.45748,-1.520446 -8.97184,-6.484373 -14.47614,-11.030894 -17.33308,-10.417353 -10.87207,-7.666677 -28.69744,-12.234715 -41.27344,-10.576989 -93.56283,-15.972825 -155.44925,-16.041135 -58.11647,-0.0637 -74.76728,1.48302 -98.03981,9.109768 -21.96313,7.19767 -47.97283,20.206687 -57.61468,28.816629 l -7.44571,6.648778 1.01202,-5.473731 c 0.55656,-3.010553 2.15612,-7.749307 3.55445,-10.530581 2.70366,-5.377644 12.701,-15.358129 15.38401,-15.358129 0.88247,0 1.26111,-0.348613 0.84158,-0.774303 -2.09203,-2.122731 -58.2741,10.889876 -85.191621,19.731651 -30.259474,9.939512 -45.635078,8.930449 -60.045701,-3.940817 -6.602512,-5.897182 -10.557227,-9.169951 -11.271521,-23.09549 -0.712636,-12.454665 3.465444,-18.521085 9.225936,-27.439445 6.917064,-10.70881 16.04195,-21.42536 17.238013,-20.24481 0.498296,0.49187 -0.05945,4.67474 -1.238978,9.29513 -4.754305,18.61712 -1.831283,32.47375 8.349669,39.581379 14.096654,9.841371 22.712498,10.329048 59.398053,3.362112 113.65122,-21.583381 169.54315,-28.159271 227.90342,-26.813621 53.49221,1.23333 105.6634,9.32754 141.31546,21.924477 18.55278,6.555294 18.65926,6.526702 9.07124,-2.436747 -4.86842,-4.55132 -8.25397,-8.64999 -7.52344,-9.10814 2.23058,-1.39892 16.34889,5.20126 25.57421,11.955602 11.50898,8.426316 12.78924,13.59239 15.90847,19.915044 7.18848,14.571346 3.55384,21.19523 -7.78209,14.181935 z"
       id="path821-0"
       inkscape:connector-curvature="0"
       sodipodi:nodetypes="ccscsscccscsccsccsssscccccc"
       inkscape:export-xdpi="96"
       inkscape:export-ydpi="96" />
    <path
       style="fill:#4d4d4d;fill-opacity:1;stroke:none;stroke-width:1.37795103"
       d="m 571.96701,-60.085232 c 2.46037,-1.495128 8.98229,-6.376157 14.49315,-10.8468 17.35339,-10.243465 10.8848,-7.538707 28.73105,-12.030492 41.32184,-10.4004 93.67255,-15.706198 155.63147,-15.77336 58.18457,-0.0627 75.10729,-1.630036 98.40711,5.869414 21.98882,7.077501 54.02154,22.706246 60.07972,34.126173 l 2.78562,5.251 1.00574,-6.797864 c -0.55725,-2.960269 -1.40155,-10.965585 -2.80152,-13.700465 -2.70681,-5.287866 -9.1827,-13.171559 -11.86887,-13.171559 -0.88353,0 -5.55285,1.072707 -5.13286,0.654097 2.09448,-2.087274 58.34242,10.708113 85.29149,19.402305 30.29489,9.773614 45.68859,8.781373 60.11609,-3.875048 6.6102,-5.798765 10.5696,-9.0169 11.2847,-22.709957 0.7134,-12.246742 -0.8196,-18.855322 -6.5868,-27.624802 -6.9252,-10.53004 -22.8748,-25.18549 -24.0722,-24.02461 -0.4991,0.4837 4.2236,9.35783 5.4045,13.90108 4.7598,18.30636 1.8334,31.931712 -8.3595,38.920655 -14.1131,9.67714 -22.7391,10.156647 -59.46766,3.306006 -113.78442,-21.223121 -169.74188,-27.689191 -228.17055,-26.366041 -53.55491,1.21274 -105.78723,9.17186 -141.48108,21.558495 -18.57454,6.445912 -18.68111,6.41775 -9.0819,-2.396066 4.87415,-4.475329 8.26366,-8.505579 7.53232,-8.956109 -0.51547,-0.31757 -1.75345,-4.85652 -3.32963,-4.43115 -5.25491,1.41815 -15.16956,11.07807 -22.27462,16.187227 -11.52249,8.285611 -12.80427,13.365469 -15.92717,19.582614 -7.19693,14.328067 -3.55793,20.841381 7.79125,13.945197 z"
       id="path821-0-8-9"
       inkscape:connector-curvature="0"
       sodipodi:nodetypes="ccscsscccscsccsccssssccscccc"
       inkscape:export-xdpi="96"
       inkscape:export-ydpi="96" />
    <path
       style="fill:url(#radialGradient903-2);fill-opacity:1;stroke:none;stroke-width:1.38667512"
       d="m 569.21955,-63.924885 c 2.45006,-1.520452 8.94458,-6.48438 14.43222,-11.030902 17.28043,-10.417346 10.83904,-7.666669 28.6103,-12.234713 41.14819,-10.576989 93.27889,-15.97283 154.97751,-16.04113 57.94008,-0.0637 74.54034,1.48302 97.74224,9.109763 21.89647,7.197676 47.82725,20.206693 57.43983,28.816634 l 7.42311,6.648773 -1.00897,-5.473726 c -0.55485,-3.010558 -2.14956,-7.749313 -3.54365,-10.530586 -2.69543,-5.377639 -12.66244,-15.35813 -15.33732,-15.35813 -0.87977,0 -1.25727,-0.348613 -0.83902,-0.774302 2.08571,-2.122731 58.09723,10.889874 84.93307,19.731651 30.16763,9.939516 45.49653,8.930454 59.86343,-3.940811 6.5825,-5.897183 10.5252,-9.169958 11.2373,-23.095496 0.7105,-12.45466 -3.4549,-18.52109 -9.1979,-27.43944 -6.8961,-10.70882 -15.9932,-21.42537 -17.1857,-20.24482 -0.4969,0.49187 0.059,4.67475 1.2352,9.29513 4.7399,18.61712 1.8258,32.47376 -8.3243,39.581388 -14.0539,9.841366 -22.6436,10.329044 -59.21778,3.362108 -113.3063,-21.583386 -169.02859,-28.159276 -227.21174,-26.813626 -53.32988,1.23333 -105.34271,9.32754 -140.88655,21.924481 -18.49651,6.555299 -18.60264,6.526703 -9.04376,-2.436751 4.85366,-4.55132 8.22895,-8.64998 7.50066,-9.10814 -2.22384,-1.39892 -16.29928,5.20127 -25.49658,11.955607 -11.47404,8.42632 -12.75043,13.59239 -15.8602,19.91505 -7.16669,14.571339 -3.54304,21.195223 7.75843,14.181927 z"
       id="path821-0-9"
       inkscape:connector-curvature="0"
       sodipodi:nodetypes="ccscsscccscsccsccsssscccccc"
       inkscape:export-xdpi="96"
       inkscape:export-ydpi="96" />
    <text
       xml:space="preserve"
       style="font-style:normal;font-variant:normal;font-weight:normal;font-stretch:normal;font-size:145.83477783px;line-height:1.25;font-family:'Cheese Donuts';-inkscape-font-specification:'Cheese Donuts, Normal';font-variant-ligatures:normal;font-variant-caps:normal;font-variant-numeric:normal;font-feature-settings:normal;text-align:start;letter-spacing:0px;word-spacing:0px;writing-mode:lr-tb;text-anchor:start;fill:url(#radialGradient860);fill-opacity:1;stroke:none;stroke-width:3.64586926"
       x="91.776398"
       y="-154.88484"
       id="text832"
       transform="scale(1.0320138,0.96897926)"
       inkscape:export-xdpi="96"
       inkscape:export-ydpi="96"><tspan
         sodipodi:role="line"
         id="tspan830"
         x="91.776398"
         y="-154.88484"
         style="font-style:normal;font-variant:normal;font-weight:normal;font-stretch:normal;font-size:145.83477783px;font-family:'Cheese Donuts';-inkscape-font-specification:'Cheese Donuts, Normal';font-variant-ligatures:normal;font-variant-caps:normal;font-variant-numeric:normal;font-feature-settings:normal;text-align:start;writing-mode:lr-tb;text-anchor:start;fill:url(#radialGradient860);fill-opacity:1;stroke-width:3.64586926">The adventure of</tspan></text>
    <text
       xml:space="preserve"
       style="font-style:normal;font-variant:normal;font-weight:normal;font-stretch:normal;font-size:181.46826172px;line-height:1.25;font-family:'Cheese Donuts';-inkscape-font-specification:'Cheese Donuts, Normal';font-variant-ligatures:normal;font-variant-caps:normal;font-variant-numeric:normal;font-feature-settings:normal;text-align:start;letter-spacing:0px;word-spacing:0px;writing-mode:lr-tb;text-anchor:start;fill:#4b4b4b;fill-opacity:1;stroke:none;stroke-width:4.53670597"
       x="133.51418"
       y="71.675705"
       id="text832-0-6"
       transform="scale(1.1707616,0.85414484)"
       inkscape:export-xdpi="96"
       inkscape:export-ydpi="96"><tspan
         sodipodi:role="line"
         id="tspan830-9-7"
         x="133.51418"
         y="71.675705"
         style="font-style:normal;font-variant:normal;font-weight:normal;font-stretch:normal;font-size:181.46826172px;font-family:'Cheese Donuts';-inkscape-font-specification:'Cheese Donuts, Normal';font-variant-ligatures:normal;font-variant-caps:normal;font-variant-numeric:normal;font-feature-settings:normal;text-align:start;writing-mode:lr-tb;text-anchor:start;fill:#4b4b4b;fill-opacity:1;stroke-width:4.53670597">FIYUWITT</tspan></text>
    <text
       xml:space="preserve"
       style="font-style:normal;font-variant:normal;font-weight:normal;font-stretch:normal;font-size:181.46826172px;line-height:1.25;font-family:'Cheese Donuts';-inkscape-font-specification:'Cheese Donuts, Normal';font-variant-ligatures:normal;font-variant-caps:normal;font-variant-numeric:normal;font-feature-settings:normal;text-align:start;letter-spacing:0px;word-spacing:0px;writing-mode:lr-tb;text-anchor:start;fill:url(#radialGradient908);fill-opacity:1;stroke:none;stroke-width:4.53670597"
       x="141.64644"
       y="69.28167"
       id="text832-0"
       transform="scale(1.1707616,0.85414484)"
       inkscape:export-xdpi="96"
       inkscape:export-ydpi="96"><tspan
         sodipodi:role="line"
         id="tspan830-9"
         x="141.64644"
         y="69.28167"
         style="font-style:normal;font-variant:normal;font-weight:normal;font-stretch:normal;font-size:181.46826172px;font-family:'Cheese Donuts';-inkscape-font-specification:'Cheese Donuts, Normal';font-variant-ligatures:normal;font-variant-caps:normal;font-variant-numeric:normal;font-feature-settings:normal;text-align:start;writing-mode:lr-tb;text-anchor:start;fill:url(#radialGradient908);fill-opacity:1;stroke-width:4.53670597">FIYUWITT</tspan></text>
  </g>
</svg>
