<?xml version="1.0" encoding="UTF-8" standalone="no"?>
<!-- Created with Inkscape (http://www.inkscape.org/) -->

<svg
   xmlns:dc="http://purl.org/dc/elements/1.1/"
   xmlns:cc="http://creativecommons.org/ns#"
   xmlns:rdf="http://www.w3.org/1999/02/22-rdf-syntax-ns#"
   xmlns:svg="http://www.w3.org/2000/svg"
   xmlns="http://www.w3.org/2000/svg"
   xmlns:xlink="http://www.w3.org/1999/xlink"
   xmlns:sodipodi="http://sodipodi.sourceforge.net/DTD/sodipodi-0.dtd"
   xmlns:inkscape="http://www.inkscape.org/namespaces/inkscape"
   width="210mm"
   height="297mm"
   viewBox="0 0 210 297"
   version="1.1"
   id="svg913"
   inkscape:version="0.92.4 (5da689c313, 2019-01-14)"
   sodipodi:docname="title.svg">
  <defs
     id="defs907">
    <radialGradient
       inkscape:collect="always"
       xlink:href="#linearGradient933"
       id="radialGradient908"
       cx="90.160545"
       cy="83.521385"
       fx="90.160545"
       fy="83.521385"
       r="57.85778"
       gradientTransform="matrix(1,0,0,0.21646749,-0.55659454,44.612459)"
       gradientUnits="userSpaceOnUse" />
    <linearGradient
       inkscape:collect="always"
       id="linearGradient933">
      <stop
         style="stop-color:#c9a809;stop-opacity:1"
         offset="0"
         id="stop929" />
      <stop
         style="stop-color:#ffe770;stop-opacity:1"
         offset="1"
         id="stop931" />
    </linearGradient>
    <radialGradient
       inkscape:collect="always"
       xlink:href="#linearGradient933"
       id="radialGradient858"
       cx="90.160545"
       cy="83.521385"
       fx="90.160545"
       fy="83.521385"
       r="57.85778"
       gradientTransform="matrix(1,0,0,0.21646749,1.5268003,77.014798)"
       gradientUnits="userSpaceOnUse" />
    <radialGradient
       inkscape:collect="always"
       xlink:href="#linearGradient933"
       id="radialGradient860"
       cx="102.25973"
       cy="36.458839"
       fx="102.25973"
       fy="36.458839"
       r="79.130295"
       gradientTransform="matrix(1,0,0,0.13736188,-1.1442589,13.090008)"
       gradientUnits="userSpaceOnUse" />
    <radialGradient
       inkscape:collect="always"
       xlink:href="#linearGradient933"
       id="radialGradient873"
       cx="102.25973"
       cy="36.458839"
       fx="102.25973"
       fy="36.458839"
       r="79.130295"
       gradientTransform="matrix(1,0,0,0.13736188,1.2192353,41.652322)"
       gradientUnits="userSpaceOnUse" />
    <radialGradient
       inkscape:collect="always"
       xlink:href="#linearGradient933"
       id="radialGradient903-2"
       cx="32.145348"
       cy="212.44429"
       fx="32.145348"
       fy="212.44429"
       r="47.501835"
       gradientTransform="matrix(-1.5692226,-0.09548503,-0.00983745,0.16823453,229.22907,5.2897456)"
       gradientUnits="userSpaceOnUse" />
    <radialGradient
       inkscape:collect="always"
       xlink:href="#linearGradient933"
       id="radialGradient903"
       cx="32.145348"
       cy="212.44429"
       fx="32.145348"
       fy="212.44429"
       r="47.501835"
       gradientTransform="matrix(1.5739996,-0.09548503,0.0098674,0.16823453,-21.426375,5.3283855)"
       gradientUnits="userSpaceOnUse" />
  </defs>
  <sodipodi:namedview
     id="base"
     pagecolor="#ffffff"
     bordercolor="#666666"
     borderopacity="1.0"
     inkscape:pageopacity="0.0"
     inkscape:pageshadow="2"
     inkscape:zoom="0.7"
     inkscape:cx="109.01226"
     inkscape:cy="803.37404"
     inkscape:document-units="mm"
     inkscape:current-layer="layer1"
     showgrid="false"
     inkscape:window-width="1920"
     inkscape:window-height="1009"
     inkscape:window-x="-8"
     inkscape:window-y="-8"
     inkscape:window-maximized="1" />
  <metadata
     id="metadata910">
    <rdf:RDF>
      <cc:Work
         rdf:about="">
        <dc:format>image/svg+xml</dc:format>
        <dc:type
           rdf:resource="http://purl.org/dc/dcmitype/StillImage" />
        <dc:title></dc:title>
      </cc:Work>
    </rdf:RDF>
  </metadata>
  <g
     inkscape:label="Calque 1"
     inkscape:groupmode="layer"
     id="layer1">
    <text
       xml:space="preserve"
       style="font-style:normal;font-variant:normal;font-weight:normal;font-stretch:normal;font-size:26.76868439px;line-height:1.25;font-family:'Cheese Donuts';-inkscape-font-specification:'Cheese Donuts, Normal';font-variant-ligatures:normal;font-variant-caps:normal;font-variant-numeric:normal;font-feature-settings:normal;text-align:start;letter-spacing:0px;word-spacing:0px;writing-mode:lr-tb;text-anchor:start;fill:#474747;fill-opacity:0.96788988;stroke:none;stroke-width:0.66921705"
       x="20.508314"
       y="26.907171"
       id="text832-9"
       transform="scale(1.0318485,0.96913452)"
       inkscape:export-xdpi="96"
       inkscape:export-ydpi="96"><tspan
         sodipodi:role="line"
         id="tspan830-0"
         x="20.508314"
         y="26.907171"
         style="font-style:normal;font-variant:normal;font-weight:normal;font-stretch:normal;font-size:26.76868439px;font-family:'Cheese Donuts';-inkscape-font-specification:'Cheese Donuts, Normal';font-variant-ligatures:normal;font-variant-caps:normal;font-variant-numeric:normal;font-feature-settings:normal;text-align:start;writing-mode:lr-tb;text-anchor:start;fill:#474747;fill-opacity:0.96788988;stroke-width:0.66921705">The adventure of</tspan></text>
    <path
       style="fill:#4d4d4d;fill-opacity:0.90825686;stroke:none;stroke-width:0.25331435"
       d="m 98.03167,41.774058 c -0.45291,-0.274471 -1.6535,-1.170562 -2.66795,-1.991292 -3.194485,-1.880539 -2.003722,-1.38399 -5.288937,-2.208609 -7.606694,-1.90936 -17.243626,-2.883411 -28.649287,-2.89574 -10.71086,-0.01151 -13.826061,-0.299249 -18.115187,1.077531 -4.0478,1.299319 -9.94451,4.168508 -11.059724,6.265029 l -0.512787,0.963999 -0.185141,-1.247979 c 0.102574,-0.543459 0.258001,-2.013111 0.515711,-2.51519 0.498287,-0.970769 1.690395,-2.41809 2.184872,-2.41809 0.16264,0 1.022194,0.196929 0.944878,0.120081 -0.385562,-0.383191 -10.739913,1.965838 -15.700812,3.56195 -5.576818,1.79428 -8.41054,1.61213 -11.0664155,-0.71139 -1.216843,-1.064562 -1.945696,-1.65536 -2.077341,-4.169191 -0.131338,-2.24832 0.150881,-3.46155 1.212538,-5.07148 1.274814,-1.93316 4.2108735,-4.62366 4.4313075,-4.41055 0.09183,0.0888 -0.777507,1.71796 -0.994887,2.55203 -0.876217,3.36076 -0.337504,5.86215 1.538844,7.145221 2.598012,1.77656 4.185911,1.8646 10.947057,0.60693 20.945913,-3.896231 31.246793,-5.083311 42.002582,-4.840391 9.858613,0.22264 19.473762,1.6838 26.04443,3.957799 3.419282,1.183362 3.4389,1.1782 1.671833,-0.439878 -0.897252,-0.8216 -1.521209,-1.561491 -1.386573,-1.644201 0.09486,-0.0583 0.322779,-0.89158 0.612926,-0.81349 0.967341,0.26035 2.792483,2.03376 4.100403,2.971711 2.12111,1.521118 2.35706,2.4537 2.93194,3.59506 1.32484,2.630419 0.65496,3.826158 -1.43425,2.560119 z"
       id="path821-0-8"
       inkscape:connector-curvature="0"
       sodipodi:nodetypes="ccscsscccscsccsccssssccscccc"
       inkscape:export-xdpi="96"
       inkscape:export-ydpi="96" />
    <path
       style="fill:url(#radialGradient903);fill-opacity:1;stroke:none;stroke-width:0.2549181"
       d="m 98.53744,41.069157 c -0.45101,-0.27913 -1.64656,-1.190429 -2.65674,-2.025099 -3.18106,-1.912462 -1.9953,-1.407481 -5.266712,-2.246101 -7.574727,-1.941769 -17.171162,-2.932359 -28.528894,-2.9449 -10.665854,-0.01169 -13.721701,0.272259 -17.992804,1.67241 -4.030792,1.321379 -8.804235,3.70963 -10.573761,5.29028 l -1.366478,1.220611 0.185733,-1.004891 c 0.102143,-0.55269 0.395702,-1.422651 0.65233,-1.933249 0.496192,-0.987251 2.330958,-2.819511 2.823358,-2.819511 0.161957,0 0.231445,-0.064 0.154453,-0.14215 -0.383942,-0.3897 -10.694782,1.99921 -15.634833,3.622421 -5.553384,1.824738 -8.375199,1.63949 -11.0199155,-0.723472 -1.211729,-1.08263 -1.93752,-1.683459 -2.068611,-4.239969 -0.130787,-2.28648 0.635997,-3.40018 1.693194,-5.03745 1.2694575,-1.96597 2.9441065,-3.93336 3.1636145,-3.71663 0.09145,0.0903 -0.01091,0.85821 -0.227384,1.70644 -0.872536,3.41781 -0.336087,5.961671 1.532377,7.266519 2.587095,1.806721 4.168322,1.896251 10.901055,0.617231 20.857894,-3.96237 31.115488,-5.1696 41.826083,-4.92256 9.817182,0.22642 19.391926,1.71239 25.934985,4.02499 3.40491,1.203449 3.42445,1.1982 1.664806,-0.447349 -0.893479,-0.835551 -1.514816,-1.588001 -1.380744,-1.672111 0.409369,-0.25682 3.000438,0.95487 4.693518,2.194861 2.11219,1.546939 2.34715,2.495349 2.91961,3.656089 1.31927,2.67507 0.65222,3.891111 -1.42821,2.60358 z"
       id="path821-0"
       inkscape:connector-curvature="0"
       sodipodi:nodetypes="ccscsscccscsccsccsssscccccc"
       inkscape:export-xdpi="96"
       inkscape:export-ydpi="96" />
    <path
       style="fill:#4d4d4d;fill-opacity:1;stroke:none;stroke-width:0.25292963"
       d="m 110.13357,41.735418 c 0.45154,-0.274482 1.64848,-1.170562 2.65986,-1.991302 3.18479,-1.880539 1.99764,-1.383988 5.27288,-2.208609 7.58361,-1.90935 17.1913,-2.883411 28.56234,-2.895741 10.67835,-0.01151 13.7841,-0.299249 18.06021,1.077532 4.03551,1.299318 9.91433,4.16851 11.02616,6.265029 l 0.51123,0.964001 0.18458,-1.247981 c -0.10227,-0.543459 -0.25722,-2.013109 -0.51415,-2.51519 -0.49677,-0.970769 -1.68526,-2.418091 -2.17824,-2.418091 -0.16215,0 -1.01909,0.196932 -0.94201,0.120082 0.38439,-0.383191 10.70732,1.965841 15.65316,3.561958 5.55989,1.794282 8.38502,1.612122 11.03283,-0.711398 1.21315,-1.064562 1.93979,-1.655361 2.07103,-4.169191 0.13094,-2.24831 -0.15042,-3.46154 -1.20885,-5.07148 -1.27095,-1.93315 -4.1981,-4.62366 -4.41786,-4.41054 -0.0916,0.0888 0.77515,1.71795 0.99187,2.55202 0.87355,3.36076 0.33648,5.86216 -1.53418,7.14522 -2.59012,1.776571 -4.1732,1.864601 -10.91383,0.606931 -20.88234,-3.896231 -31.15196,-5.083301 -41.87511,-4.840391 -9.82869,0.22264 -19.41465,1.68381 -25.96538,3.957801 -3.4089,1.183368 -3.42846,1.178198 -1.66676,-0.43988 0.89453,-0.8216 1.51659,-1.561491 1.38237,-1.644201 -0.0946,-0.0583 -0.3218,-0.89158 -0.61107,-0.81349 -0.96441,0.26035 -2.784,2.03376 -4.08796,2.971721 -2.11467,1.521108 -2.34991,2.45369 -2.92304,3.59506 -1.32082,2.630408 -0.65297,3.82615 1.42989,2.560119 z"
       id="path821-0-8-9"
       inkscape:connector-curvature="0"
       sodipodi:nodetypes="ccscsscccscsccsccssssccscccc"
       inkscape:export-xdpi="96"
       inkscape:export-ydpi="96" />
    <path
       style="fill:url(#radialGradient903-2);fill-opacity:1;stroke:none;stroke-width:0.25453097"
       d="m 109.62934,41.030518 c 0.44965,-0.279131 1.64156,-1.19043 2.64868,-2.0251 3.1714,-1.912461 1.98924,-1.40748 5.25072,-2.246101 7.55174,-1.941769 17.11905,-2.932361 28.44232,-2.9449 10.63348,-0.01169 13.68005,0.272259 17.93819,1.67241 4.01856,1.32138 8.77752,3.709631 10.54167,5.290281 l 1.36233,1.22061 -0.18517,-1.00489 c -0.10183,-0.552691 -0.3945,-1.422652 -0.65035,-1.93325 -0.49468,-0.98725 -2.32388,-2.819511 -2.81479,-2.819511 -0.16146,0 -0.23074,-0.064 -0.15398,-0.14215 0.38278,-0.3897 10.66232,1.99921 15.58738,3.622421 5.53653,1.824739 8.34978,1.639491 10.98647,-0.723471 1.20805,-1.08263 1.93164,-1.68346 2.06233,-4.23997 0.13039,-2.28648 -0.63406,-3.40018 -1.68805,-5.03745 -1.26561,-1.96597 -2.93517,-3.93336 -3.15401,-3.71663 -0.0912,0.0903 0.0109,0.85821 0.22669,1.70644 0.86989,3.41781 0.33507,5.961671 -1.52773,7.26652 -2.57924,1.80672 -4.15567,1.89625 -10.86797,0.61723 -20.79459,-3.96237 -31.02105,-5.1696 -41.69914,-4.92256 -9.78739,0.22642 -19.33307,1.71239 -25.85627,4.02499 -3.39458,1.20345 -3.41406,1.1982 -1.65976,-0.447349 0.89077,-0.835551 1.51022,-1.588001 1.37656,-1.672111 -0.40813,-0.25682 -2.99133,0.95487 -4.67927,2.194861 -2.10578,1.54694 -2.34003,2.495349 -2.91075,3.65609 -1.31527,2.675069 -0.65024,3.89111 1.42387,2.603579 z"
       id="path821-0-9"
       inkscape:connector-curvature="0"
       sodipodi:nodetypes="ccscsscccscsccsccsssscccccc"
       inkscape:export-xdpi="96"
       inkscape:export-ydpi="96" />
    <text
       xml:space="preserve"
       style="font-style:normal;font-variant:normal;font-weight:normal;font-stretch:normal;font-size:26.76868439px;line-height:1.25;font-family:'Cheese Donuts';-inkscape-font-specification:'Cheese Donuts, Normal';font-variant-ligatures:normal;font-variant-caps:normal;font-variant-numeric:normal;font-feature-settings:normal;text-align:start;letter-spacing:0px;word-spacing:0px;writing-mode:lr-tb;text-anchor:start;fill:url(#radialGradient860);fill-opacity:1;stroke:none;stroke-width:0.66921705"
       x="21.849699"
       y="26.016777"
       id="text832"
       transform="scale(1.0318485,0.96913452)"
       inkscape:export-xdpi="96"
       inkscape:export-ydpi="96"><tspan
         sodipodi:role="line"
         id="tspan830"
         x="21.849699"
         y="26.016777"
         style="font-style:normal;font-variant:normal;font-weight:normal;font-stretch:normal;font-size:26.76868439px;font-family:'Cheese Donuts';-inkscape-font-specification:'Cheese Donuts, Normal';font-variant-ligatures:normal;font-variant-caps:normal;font-variant-numeric:normal;font-feature-settings:normal;text-align:start;writing-mode:lr-tb;text-anchor:start;fill:url(#radialGradient860);fill-opacity:1;stroke-width:0.66921705">The adventure of</tspan></text>
    <text
       xml:space="preserve"
       style="font-style:normal;font-variant:normal;font-weight:normal;font-stretch:normal;font-size:33.30938339px;line-height:1.25;font-family:'Cheese Donuts';-inkscape-font-specification:'Cheese Donuts, Normal';font-variant-ligatures:normal;font-variant-caps:normal;font-variant-numeric:normal;font-feature-settings:normal;text-align:start;letter-spacing:0px;word-spacing:0px;writing-mode:lr-tb;text-anchor:start;fill:#4b4b4b;fill-opacity:1;stroke:none;stroke-width:0.83273447"
       x="28.917879"
       y="74.92308"
       id="text832-0-6"
       transform="scale(1.1705741,0.85428168)"
       inkscape:export-xdpi="96"
       inkscape:export-ydpi="96"><tspan
         sodipodi:role="line"
         id="tspan830-9-7"
         x="28.917879"
         y="74.92308"
         style="font-style:normal;font-variant:normal;font-weight:normal;font-stretch:normal;font-size:33.30938339px;font-family:'Cheese Donuts';-inkscape-font-specification:'Cheese Donuts, Normal';font-variant-ligatures:normal;font-variant-caps:normal;font-variant-numeric:normal;font-feature-settings:normal;text-align:start;writing-mode:lr-tb;text-anchor:start;fill:#4b4b4b;fill-opacity:1;stroke-width:0.83273447">FIYUWITT</tspan></text>
    <text
       xml:space="preserve"
       style="font-style:normal;font-variant:normal;font-weight:normal;font-stretch:normal;font-size:33.30938339px;line-height:1.25;font-family:'Cheese Donuts';-inkscape-font-specification:'Cheese Donuts, Normal';font-variant-ligatures:normal;font-variant-caps:normal;font-variant-numeric:normal;font-feature-settings:normal;text-align:start;letter-spacing:0px;word-spacing:0px;writing-mode:lr-tb;text-anchor:start;fill:url(#radialGradient908);fill-opacity:1;stroke:none;stroke-width:0.83273447"
       x="30.410597"
       y="74.483643"
       id="text832-0"
       transform="scale(1.1705741,0.85428168)"
       inkscape:export-xdpi="96"
       inkscape:export-ydpi="96"><tspan
         sodipodi:role="line"
         id="tspan830-9"
         x="30.410597"
         y="74.483643"
         style="font-style:normal;font-variant:normal;font-weight:normal;font-stretch:normal;font-size:33.30938339px;font-family:'Cheese Donuts';-inkscape-font-specification:'Cheese Donuts, Normal';font-variant-ligatures:normal;font-variant-caps:normal;font-variant-numeric:normal;font-feature-settings:normal;text-align:start;writing-mode:lr-tb;text-anchor:start;fill:url(#radialGradient908);fill-opacity:1;stroke-width:0.83273447">FIYUWITT</tspan></text>
  </g>
</svg>
