<?xml version="1.0" encoding="UTF-8" standalone="no"?>
<!-- Created with Inkscape (http://www.inkscape.org/) -->

<svg
   width="210mm"
   height="297mm"
   viewBox="0 0 210 297"
   version="1.1"
   id="svg5"
   xml:space="preserve"
   inkscape:version="1.2.2 (732a01da63, 2022-12-09)"
   sodipodi:docname="fiyuwitt.svg"
   xmlns:inkscape="http://www.inkscape.org/namespaces/inkscape"
   xmlns:sodipodi="http://sodipodi.sourceforge.net/DTD/sodipodi-0.dtd"
   xmlns:xlink="http://www.w3.org/1999/xlink"
   xmlns="http://www.w3.org/2000/svg"
   xmlns:svg="http://www.w3.org/2000/svg"><sodipodi:namedview
     id="namedview7"
     pagecolor="#ffffff"
     bordercolor="#000000"
     borderopacity="0.25"
     inkscape:showpageshadow="2"
     inkscape:pageopacity="0.0"
     inkscape:pagecheckerboard="0"
     inkscape:deskcolor="#d1d1d1"
     inkscape:document-units="mm"
     showgrid="false"
     inkscape:zoom="0.914906"
     inkscape:cx="623.01482"
     inkscape:cy="10.930085"
     inkscape:window-width="2560"
     inkscape:window-height="1369"
     inkscape:window-x="-8"
     inkscape:window-y="-8"
     inkscape:window-maximized="1"
     inkscape:current-layer="layer1" /><defs
     id="defs2"><linearGradient
       inkscape:collect="always"
       id="linearGradient12513"><stop
         style="stop-color:#050505;stop-opacity:1"
         offset="0"
         id="stop12509" /><stop
         style="stop-color:#020202;stop-opacity:0;"
         offset="1"
         id="stop12511" /></linearGradient><linearGradient
       inkscape:collect="always"
       id="linearGradient9390"><stop
         style="stop-color:#b3b3b3;stop-opacity:1"
         offset="0"
         id="stop9386" /><stop
         style="stop-color:#626262;stop-opacity:0;"
         offset="1"
         id="stop9388" /></linearGradient><linearGradient
       inkscape:collect="always"
       id="linearGradient7442"><stop
         style="stop-color:#ffffff;stop-opacity:1;"
         offset="0"
         id="stop7438" /><stop
         style="stop-color:#6f6f6f;stop-opacity:1"
         offset="1"
         id="stop7440" /></linearGradient><linearGradient
       inkscape:collect="always"
       id="linearGradient4564"><stop
         style="stop-color:#f3f3f3;stop-opacity:1;"
         offset="0"
         id="stop4560" /><stop
         style="stop-color:#ffffff;stop-opacity:1;"
         offset="1"
         id="stop4562" /></linearGradient><linearGradient
       inkscape:collect="always"
       xlink:href="#linearGradient4564"
       id="linearGradient4566"
       x1="41.686737"
       y1="61.580631"
       x2="48.768654"
       y2="34.281281"
       gradientUnits="userSpaceOnUse"
       gradientTransform="rotate(12.65656,68.837367,407.84786)" /><linearGradient
       inkscape:collect="always"
       xlink:href="#linearGradient7442"
       id="linearGradient7444"
       x1="65.940041"
       y1="34.860523"
       x2="69.937637"
       y2="41.980976"
       gradientUnits="userSpaceOnUse"
       gradientTransform="matrix(1.0110485,0,0,1.059869,81.001629,2.1151015)" /><linearGradient
       inkscape:collect="always"
       xlink:href="#linearGradient9390"
       id="linearGradient9392"
       x1="62.809875"
       y1="36.859001"
       x2="81.696182"
       y2="86.75444"
       gradientUnits="userSpaceOnUse"
       gradientTransform="translate(81.59131,4.2942795)" /><linearGradient
       inkscape:collect="always"
       xlink:href="#linearGradient12513"
       id="linearGradient12515"
       x1="68.525551"
       y1="70.504219"
       x2="70.560913"
       y2="58.132603"
       gradientUnits="userSpaceOnUse"
       gradientTransform="translate(81.59131,4.2942795)" /><linearGradient
       inkscape:collect="always"
       xlink:href="#linearGradient9390"
       id="linearGradient14148"
       gradientUnits="userSpaceOnUse"
       gradientTransform="translate(21.885539,3.2485105)"
       x1="62.809875"
       y1="36.859001"
       x2="81.696182"
       y2="86.75444" /><linearGradient
       inkscape:collect="always"
       xlink:href="#linearGradient4564"
       id="linearGradient14150"
       gradientUnits="userSpaceOnUse"
       gradientTransform="rotate(-18.671371,69.323947,-27.227219)"
       x1="41.686737"
       y1="61.580631"
       x2="48.768654"
       y2="34.281281" /><linearGradient
       inkscape:collect="always"
       xlink:href="#linearGradient7442"
       id="linearGradient14152"
       gradientUnits="userSpaceOnUse"
       gradientTransform="matrix(1.0110485,0,0,1.059869,21.295858,1.069332)"
       x1="65.940041"
       y1="34.860523"
       x2="69.937637"
       y2="41.980976" /><linearGradient
       inkscape:collect="always"
       xlink:href="#linearGradient12513"
       id="linearGradient14154"
       gradientUnits="userSpaceOnUse"
       gradientTransform="translate(21.885539,3.2485105)"
       x1="68.525551"
       y1="70.504219"
       x2="70.560913"
       y2="58.132603" /><linearGradient
       inkscape:collect="always"
       xlink:href="#linearGradient9390"
       id="linearGradient14451"
       gradientUnits="userSpaceOnUse"
       gradientTransform="translate(-23.87256,4.6743458)"
       x1="62.809875"
       y1="36.859001"
       x2="81.696182"
       y2="86.75444" /><linearGradient
       inkscape:collect="always"
       xlink:href="#linearGradient4564"
       id="linearGradient14453"
       gradientUnits="userSpaceOnUse"
       gradientTransform="rotate(-20.886534,49.197247,104.81513)"
       x1="41.686737"
       y1="61.580631"
       x2="48.768654"
       y2="34.281281" /><linearGradient
       inkscape:collect="always"
       xlink:href="#linearGradient7442"
       id="linearGradient14455"
       gradientUnits="userSpaceOnUse"
       gradientTransform="matrix(1.0110485,0,0,1.059869,-24.462241,2.4951678)"
       x1="65.940041"
       y1="34.860523"
       x2="69.937637"
       y2="41.980976" /><linearGradient
       inkscape:collect="always"
       xlink:href="#linearGradient12513"
       id="linearGradient14457"
       gradientUnits="userSpaceOnUse"
       gradientTransform="translate(-23.87256,4.6743458)"
       x1="68.525551"
       y1="70.504219"
       x2="70.560913"
       y2="58.132603" /></defs><g
     inkscape:label="Calque 1"
     inkscape:groupmode="layer"
     id="layer1"><rect
       style="fill:#020202;fill-opacity:1;stroke:#000000;stroke-width:0.359588;stroke-opacity:1"
       id="rect3519"
       width="205.86398"
       height="99.730591"
       x="2.7676148"
       y="5.2257471"
       ry="0.082160689"
       sodipodi:insensitive="true" /><g
       id="g14332"
       transform="translate(23.424538,1.0121714)"
       inkscape:export-filename="fiyuwitt1.png"
       inkscape:export-xdpi="96"
       inkscape:export-ydpi="96"><path
         style="fill:url(#linearGradient9392);fill-opacity:1;stroke:none;stroke-width:0.319;stroke-opacity:1"
         d="m 143.31078,46.813119 c 0,0 -7.214,-1.300651 -6.76206,0.693675 0.45194,1.994329 0.16671,16.002314 2.90425,15.591626 2.73754,-0.41069 20.36474,-4.510086 22.83506,-5.17473 2.47031,-0.664644 6.35531,-2.488571 5.7398,-3.816811 -0.61551,-1.328236 -2.04202,-2.996878 -4.00442,-2.866682 -1.9624,0.130195 -16.158,2.718084 -16.158,2.718084 l 0.41254,-7.43209 z"
         id="path3221"
         sodipodi:nodetypes="csssssccc" /><path
         style="fill:#d5d5d5;fill-opacity:1;stroke:none;stroke-width:0.319;stroke-opacity:1"
         d="m 133.41795,66.587676 c 0,0 0.44185,5.057062 1.62237,7.093475 1.18052,2.036415 2.84254,5.585298 3.14898,5.874807 0.30644,0.28951 2.63792,1.468763 4.08824,1.269695 1.45032,-0.199071 3.68025,-2.595482 3.68025,-2.595482 0,0 0.14981,-3.372298 -1.33993,-7.031326 -1.48974,-3.65903 -2.95269,-5.75759 -2.95269,-5.75759 0,0 -3.93288,-1.975782 -8.24722,1.146421 z"
         id="path3405" /><path
         style="fill:#ffffff;fill-opacity:0.191011;stroke:#616161;stroke-width:0.34459;stroke-opacity:1"
         d="m 147.94545,50.831989 -8.99391,2.248601"
         id="path3463" /><path
         style="fill:#ffffff;fill-opacity:0.191011;stroke:#616161;stroke-width:0.379696;stroke-opacity:1"
         d="m 145.3962,51.73291 -4.97399,4.897468"
         id="path3465" /><path
         style="fill:#d5d5d5;fill-opacity:1;stroke:none;stroke-width:0.319;stroke-opacity:1"
         d="m 122.45019,45.445447 c 0,0 2.72962,4.079899 4.06829,6.74333 1.33867,2.663432 3.3127,9.16803 4.6895,11.321669 1.37681,2.153633 0.74272,2.680358 2.06168,3.414739 1.31896,0.734382 1.5731,2.270851 4.62911,1.16662 3.05601,-1.104234 4.11527,-4.572526 4.11527,-4.572526 0,0 -0.20741,-5.44964 -0.85413,-7.220546 -0.64674,-1.770899 -3.7462,-10.225777 -3.7462,-10.225777 z"
         id="path3403" /><path
         style="fill:#d5d5d5;fill-opacity:1;stroke:none;stroke-width:0.319;stroke-opacity:1"
         d="m 138.27545,79.500885 c 0,0 -0.23166,1.725687 1.44022,6.239095 1.67188,4.513411 2.18724,7.217765 3.06562,7.262985 0.87838,0.04522 3.73102,-0.807647 4.57277,-3.287422 0.84175,-2.479774 1.03955,-5.397348 -0.19882,-8.853011 -1.23841,-3.455654 -1.55188,-3.376594 -1.55188,-3.376594 z"
         id="path3407" /><path
         style="fill:#f5f5f5;fill-opacity:1;stroke:none;stroke-width:0.319;stroke-opacity:1"
         d="m 113.00821,61.697774 c 0,0 -1.38555,3.778113 -1.13674,8.162828 0.24881,4.38471 1.0662,8.796181 1.0662,8.796181 0,0 3.70568,1.85369 5.40744,2.222039 1.70175,0.368352 3.17749,-4.549208 3.17749,-4.549208 0,0 3.15984,-11.658786 2.63466,-13.603094 -0.52518,-1.944305 -11.14905,-1.028742 -11.14905,-1.028742 z"
         id="path3281"
         sodipodi:nodetypes="cscscscc"
         inkscape:transform-center-x="-0.4822785"
         inkscape:transform-center-y="6.7929764" /><path
         style="fill:#f5f5f5;fill-opacity:1;stroke:none;stroke-width:0.319;stroke-opacity:1"
         d="m 112.70541,75.434478 c 0,0 -1.18342,4.256373 -0.84607,6.988649 0.33735,2.73228 0.47853,9.05088 1.23134,9.570111 0.7528,0.519236 3.0087,0.630963 4.84282,-0.659147 1.83411,-1.290111 3.15696,-5.543548 3.4569,-7.669637 0.29993,-2.126087 0.2024,-7.298101 0.0713,-7.832878 -0.13108,-0.534777 -1.89457,-1.201195 -3.31197,-1.401151 -1.41739,-0.199955 -5.44435,1.004053 -5.44435,1.004053 z"
         id="path3283"
         sodipodi:nodetypes="cssssssc"
         inkscape:transform-center-x="0.22136537"
         inkscape:transform-center-y="7.1956707" /><path
         style="fill:#ffffff;fill-opacity:1;stroke:none;stroke-width:0.319;stroke-opacity:1"
         d="m 147.94815,46.52136 c 0,0 0.61347,2.965098 -0.51122,8.179581 -1.1247,5.21448 -2.83729,10.198911 -1.50811,12.95952 1.32918,2.760607 3.27183,5.112237 5.00999,3.987546 1.73816,-1.124693 6.82484,-8.971977 7.84728,-10.403404 1.02245,-1.431425 5.41898,-12.371615 7.05489,-13.905286 1.63592,-1.53367 7.97509,-8.077335 9.30427,-9.917739 1.32918,-1.840408 2.76061,-4.29428 2.76061,-4.29428 l -5.31673,-22.493844 c 0,0 -33.22954,6.543663 -34.45647,7.463866 -1.22694,0.920203 -5.72571,7.463866 -7.87285,8.793048 -2.14714,1.329182 -7.7706,4.396525 -8.48631,7.566112 -0.71572,3.169586 -0.20449,4.907748 0,5.725705 0.20448,0.817959 5.52121,6.748152 8.48631,7.054889 2.9651,0.306734 7.46387,0 8.38407,0 0.9202,0 9.30427,-0.715714 9.30427,-0.715714 z"
         id="path3783"
         sodipodi:nodetypes="cssssssccssssssc" /><path
         style="fill:url(#linearGradient4566);fill-opacity:1;stroke:none;stroke-width:0.319;stroke-opacity:1"
         d="m 124.15112,36.113826 c 0,0 -3.07336,4.232016 -5.90074,8.151218 -2.82738,3.919202 -5.19691,9.804804 -5.55147,12.89925 -0.35455,3.094445 -0.14636,6.780985 -0.14636,6.780985 0,0 0.93377,-0.326035 2.02458,0.650281 1.09082,0.976311 7.82504,1.761418 7.82504,1.761418 0,0 4.99579,-5.035585 5.6549,-7.014078 0.65912,-1.978492 7.23502,-12.290737 7.23502,-12.290737 -1.53723,-6.920882 -4.08772,-11.610662 -11.14097,-10.938337 z"
         id="path3279"
         sodipodi:nodetypes="csscscscc"
         inkscape:transform-center-x="5.7665858"
         inkscape:transform-center-y="9.0715523" /><path
         style="fill:url(#linearGradient7444);fill-opacity:1;stroke:none;stroke-width:0.33022;stroke-opacity:1"
         d="m 134.96307,47.52047 c 0,0 5.78897,-6.718696 7.75308,-6.718696 1.96411,0 5.47884,-0.108364 5.47884,-0.108364 l -0.20675,6.068497 c 0,0 -8.26995,1.517125 -13.02517,0.758563 z"
         id="path7382" /><path
         style="fill:url(#linearGradient12515);fill-opacity:1;stroke:none;stroke-width:0.319;stroke-opacity:1"
         d="m 148.15264,48.464011 c 0,0 0,3.169586 -1.43143,9.202025 -1.43142,6.032442 -2.14714,9.406517 0.30674,12.167127 2.45387,2.760607 3.06734,3.47632 6.13468,-0.613469 3.06735,-4.089791 4.90775,-6.441418 6.13469,-9.099782 1.22694,-2.658364 3.78305,-7.872847 4.29428,-8.997537 0.51122,-1.124694 -15.43896,-2.658364 -15.43896,-2.658364 z"
         id="path12507" /></g><g
       id="g14496"
       inkscape:export-filename="fiyuwitt3.png"
       inkscape:export-xdpi="96"
       inkscape:export-ydpi="96"><path
         style="fill:url(#linearGradient14451);fill-opacity:1;stroke:none;stroke-width:0.319;stroke-opacity:1"
         d="m 37.84691,47.193185 c 0,0 -7.214,-1.300651 -6.76206,0.693675 0.45194,1.994329 0.16671,16.002314 2.90425,15.591626 2.73754,-0.41069 20.36474,-4.510086 22.83506,-5.17473 2.47031,-0.664644 6.35531,-2.488571 5.7398,-3.816811 -0.61551,-1.328236 -2.04202,-2.996878 -4.00442,-2.866682 -1.9624,0.130195 -16.158,2.718084 -16.158,2.718084 l 0.41254,-7.43209 z"
         id="path3221-1"
         sodipodi:nodetypes="csssssccc" /><path
         style="fill:#d5d5d5;fill-opacity:1;stroke:none;stroke-width:0.319;stroke-opacity:1"
         d="m 13.328183,64.450862 c 0,0 -1.543746,4.835903 -1.240447,7.170129 0.303297,2.33423 0.467186,6.249587 0.63818,6.634921 0.170997,0.385333 1.866866,2.372908 3.281678,2.748894 1.414811,0.375984 4.396736,-0.974408 4.396736,-0.974408 0,0 1.43948,-3.053315 1.477031,-7.003809 0.03755,-3.950495 -0.502323,-6.451038 -0.502323,-6.451038 0,0 -2.54055,-4.460966 -7.725524,-3.24535 z"
         id="path3405-6"
         inkscape:transform-center-x="-1.8765771"
         inkscape:transform-center-y="8.1380565"
         sodipodi:nodetypes="cssscsccc" /><path
         style="fill:#ffffff;fill-opacity:0.191011;stroke:#616161;stroke-width:0.34459;stroke-opacity:1"
         d="m 42.48158,51.212055 -8.99391,2.248601"
         id="path3463-1" /><path
         style="fill:#ffffff;fill-opacity:0.191011;stroke:#616161;stroke-width:0.379696;stroke-opacity:1"
         d="m 39.93233,52.112976 -4.97399,4.897468"
         id="path3465-7" /><path
         style="fill:#d5d5d5;fill-opacity:1;stroke:none;stroke-width:0.319;stroke-opacity:1"
         d="m 19.66909,40.820823 c 0,0 -0.623099,4.869101 -1.364024,7.756475 -0.740925,2.887376 -3.526804,9.087817 -3.904016,11.615948 -0.377202,2.528134 -1.201293,2.508556 -0.689558,3.928802 0.511734,1.420246 -0.306256,2.745471 2.723019,3.921075 3.029272,1.175601 6.10668,-0.7429 6.10668,-0.7429 0,0 3.424433,-4.24439 4.100521,-6.004294 0.676068,-1.759911 3.89503,-10.170018 3.89503,-10.170018 z"
         id="path3403-8"
         inkscape:transform-center-x="2.9642152"
         inkscape:transform-center-y="7.7190299" /><path
         style="fill:#d5d5d5;fill-opacity:1;stroke:none;stroke-width:0.319;stroke-opacity:1"
         d="m 12.974405,78.659985 c 0,0 -0.540611,1.655113 0.285499,6.396799 0.82611,4.741687 0.842756,7.494658 1.698391,7.69834 0.855634,0.203681 3.81561,-0.118004 5.092887,-2.404135 1.277278,-2.286129 2.000626,-5.119525 1.409124,-8.742409 -0.591544,-3.622883 -0.914151,-3.601951 -0.914151,-3.601951 z"
         id="path3407-2"
         inkscape:transform-center-x="0.1034553"
         inkscape:transform-center-y="7.0116929" /><path
         style="fill:#f5f5f5;fill-opacity:1;stroke:none;stroke-width:0.319;stroke-opacity:1"
         d="m 21.128542,68.019908 c 0,0 0.932835,3.91455 3.563046,7.431597 2.630209,3.517043 5.7491,6.742213 5.7491,6.742213 0,0 4.112857,-0.502629 5.73476,-1.135952 1.621896,-0.633316 0.134615,-5.547398 0.134615,-5.547398 0,0 -3.808592,-11.463267 -5.320669,-12.793595 -1.512075,-1.330325 -9.860849,5.303138 -9.860849,5.303138 z"
         id="path3281-1"
         sodipodi:nodetypes="cscscscc"
         inkscape:transform-center-x="-2.627826"
         inkscape:transform-center-y="4.6047781" /><path
         style="fill:#f5f5f5;fill-opacity:1;stroke:none;stroke-width:0.319;stroke-opacity:1"
         d="m 28.466576,79.636361 c 0,0 1.365573,4.201476 3.156502,6.29234 1.79093,2.090867 5.400031,7.279223 6.314384,7.296011 0.914348,0.0168 2.85631,-1.13661 3.672126,-3.225348 0.815808,-2.088732 -0.431932,-6.364806 -1.356741,-8.302574 -0.924816,-1.937761 -3.863973,-6.194591 -4.26874,-6.56787 -0.40475,-0.373291 -2.242805,0.04571 -3.534655,0.662257 -1.29184,0.616542 -3.982901,3.845201 -3.982901,3.845201 z"
         id="path3283-5"
         sodipodi:nodetypes="cssssssc"
         inkscape:transform-center-x="-2.7793692"
         inkscape:transform-center-y="6.1684244" /><path
         style="fill:#ffffff;fill-opacity:1;stroke:none;stroke-width:0.319;stroke-opacity:1"
         d="m 42.48428,46.901426 c 0,0 0.61347,2.965098 -0.51122,8.179581 -1.1247,5.21448 -2.83729,10.198911 -1.50811,12.95952 1.32918,2.760607 3.27183,5.112237 5.00999,3.987546 1.73816,-1.124693 6.82484,-8.971977 7.84728,-10.403404 1.02245,-1.431425 5.41898,-12.371615 7.05489,-13.905286 1.63592,-1.53367 7.97509,-8.077335 9.30427,-9.917739 1.32918,-1.840408 2.76061,-4.29428 2.76061,-4.29428 L 67.12526,11.01352 c 0,0 -33.22954,6.543663 -34.45647,7.463866 -1.22694,0.920203 -5.72571,7.463866 -7.87285,8.793048 -2.14714,1.329182 -7.7706,4.396525 -8.48631,7.566112 -0.71572,3.169586 -0.20449,4.907748 0,5.725705 0.20448,0.817959 5.52121,6.748152 8.48631,7.054889 2.9651,0.306734 7.46387,0 8.38407,0 0.9202,0 9.30427,-0.715714 9.30427,-0.715714 z"
         id="path3783-3"
         sodipodi:nodetypes="cssssssccssssssc" /><path
         style="fill:url(#linearGradient14453);fill-opacity:1;stroke:none;stroke-width:0.319;stroke-opacity:1"
         d="m 16.27906,40.539272 c 0,0 -0.223095,5.225488 -0.414023,10.054336 -0.190928,4.828847 1.086311,11.04364 2.500675,13.818686 1.414372,2.77504 3.624942,5.732624 3.624942,5.732624 0,0 0.598114,-0.787708 2.046749,-0.57672 1.448641,0.210978 7.495236,-2.855746 7.495236,-2.855746 0,0 1.38136,-6.957505 0.837465,-8.970721 C 31.826218,55.72851 31.608861,43.499953 31.608861,43.499953 26.503394,38.58102 21.786233,36.081536 16.27906,40.539272 Z"
         id="path3279-6"
         sodipodi:nodetypes="csscscscc"
         inkscape:transform-center-x="0.023183564"
         inkscape:transform-center-y="11.669543" /><path
         style="fill:url(#linearGradient14455);fill-opacity:1;stroke:none;stroke-width:0.33022;stroke-opacity:1"
         d="m 29.4992,47.900536 c 0,0 5.78897,-6.718696 7.75308,-6.718696 1.96411,0 5.47884,-0.108364 5.47884,-0.108364 l -0.20675,6.068497 c 0,0 -8.26995,1.517125 -13.02517,0.758563 z"
         id="path7382-4" /><path
         style="fill:url(#linearGradient14457);fill-opacity:1;stroke:none;stroke-width:0.319;stroke-opacity:1"
         d="m 42.68877,48.844077 c 0,0 0,3.169586 -1.43143,9.202025 -1.43142,6.032442 -2.14714,9.406517 0.30674,12.167127 2.45387,2.760607 3.06734,3.47632 6.13468,-0.613469 3.06735,-4.089791 4.90775,-6.441418 6.13469,-9.099782 1.22694,-2.658364 3.78305,-7.872847 4.29428,-8.997537 0.51122,-1.124694 -15.43896,-2.658364 -15.43896,-2.658364 z"
         id="path12507-67" /></g><g
       id="g14318"
       transform="translate(16.62853,0.14459591)"
       inkscape:export-filename="fiyuwitt2.png"
       inkscape:export-xdpi="96"
       inkscape:export-ydpi="96"><path
         style="fill:url(#linearGradient14148);fill-opacity:1;stroke:none;stroke-width:0.319;stroke-opacity:1"
         d="m 83.60501,45.76735 c 0,0 -7.214,-1.300651 -6.76206,0.693675 0.45194,1.994329 0.16671,16.002314 2.90425,15.591626 2.73754,-0.41069 20.36474,-4.510086 22.83506,-5.17473 2.47031,-0.664644 6.35531,-2.488571 5.7398,-3.816811 -0.61551,-1.328236 -2.04202,-2.996878 -4.00442,-2.866682 -1.9624,0.130195 -16.158,2.718084 -16.158,2.718084 l 0.41254,-7.43209 z"
         id="path3221-8"
         sodipodi:nodetypes="csssssccc" /><path
         style="fill:#d5d5d5;fill-opacity:1;stroke:none;stroke-width:0.319;stroke-opacity:1"
         d="m 68.786879,65.146179 c 0,0 -0.781797,5.015765 -0.123185,7.275596 0.658612,2.259833 1.422595,6.103426 1.650805,6.457885 0.228211,0.354459 2.209534,2.057632 3.665333,2.211599 1.455799,0.153964 4.194635,-1.638842 4.194635,-1.638842 0,0 0.952871,-3.238344 0.382529,-7.147631 -0.57034,-3.909288 -1.488289,-6.297079 -1.488289,-6.297079 0,0 -3.345434,-2.859952 -8.281828,-0.861528 z"
         id="path3405-5"
         inkscape:transform-center-x="-0.69106503"
         inkscape:transform-center-y="27.696856" /><path
         style="fill:#ffffff;fill-opacity:0.191011;stroke:#616161;stroke-width:0.34459;stroke-opacity:1"
         d="m 88.23968,49.78622 -8.99391,2.248601"
         id="path3463-0" /><path
         style="fill:#ffffff;fill-opacity:0.191011;stroke:#616161;stroke-width:0.379696;stroke-opacity:1"
         d="m 85.69043,50.687141 -4.97399,4.897468"
         id="path3465-0" /><path
         style="fill:#d5d5d5;fill-opacity:1;stroke:none;stroke-width:0.319;stroke-opacity:1"
         d="m 63.200135,41.992909 c 0,0 1.673391,4.614777 2.335428,7.521254 0.662039,2.906478 1.021279,9.694521 1.842395,12.115163 0.821128,2.420639 0.07937,2.780225 1.184135,3.80904 1.104767,1.028817 0.983643,2.581445 4.21515,2.241021 3.231507,-0.340429 5.09036,-3.454226 5.09036,-3.454226 0,0 1.103411,-5.340794 0.899503,-7.215034 C 78.56318,55.135888 77.578191,46.184831 77.578191,46.184831 Z"
         id="path3403-5"
         inkscape:transform-center-x="1.8821178"
         inkscape:transform-center-y="9.7880967" /><path
         style="fill:#d5d5d5;fill-opacity:1;stroke:none;stroke-width:0.319;stroke-opacity:1"
         d="m 70.411329,78.846816 c 0,0 -0.638097,1.620028 -0.09547,6.402454 0.542622,4.782428 0.395497,7.531516 1.237502,7.785728 0.842005,0.254212 3.815874,0.109149 5.226865,-2.096963 1.410992,-2.206111 2.301583,-4.991467 1.92661,-8.643119 C 78.331817,78.643264 78.00854,78.64497 78.00854,78.64497 Z"
         id="path3407-8"
         inkscape:transform-center-x="-1.5666588"
         inkscape:transform-center-y="40.814069" /><path
         style="fill:#f5f5f5;fill-opacity:1;stroke:none;stroke-width:0.319;stroke-opacity:1"
         d="m 65.387072,64.860941 c 0,0 -0.365739,4.007508 1.003978,8.180218 1.369714,4.172705 3.29572,8.224829 3.29572,8.224829 0,0 4.05809,0.836742 5.797309,0.754369 1.739209,-0.08237 1.898628,-5.21411 1.898628,-5.21411 0,0 0.05047,-12.079293 -0.957752,-13.822746 -1.008226,-1.74345 -11.037882,1.877444 -11.037882,1.877444 z"
         id="path3281-2"
         sodipodi:nodetypes="cscscscc"
         inkscape:transform-center-x="-0.8952759"
         inkscape:transform-center-y="5.96677" /><path
         style="fill:#f5f5f5;fill-opacity:1;stroke:none;stroke-width:0.319;stroke-opacity:1"
         d="m 68.632428,78.21221 c 0,0 -0.04725,4.417575 0.982426,6.970789 1.029679,2.553218 2.793476,8.622291 3.654619,8.930116 0.861133,0.307836 3.069705,-0.165225 4.509676,-1.884196 1.439961,-1.71897 1.622695,-6.169618 1.364934,-8.301232 C 78.886312,81.796078 77.46,76.823666 77.195589,76.340696 76.931198,75.857721 75.055562,75.667981 73.634481,75.839824 72.213408,76.011669 68.6324,78.212218 68.6324,78.212218 Z"
         id="path3283-9"
         sodipodi:nodetypes="cssssssc"
         inkscape:transform-center-x="-1.0435418"
         inkscape:transform-center-y="7.1336084" /><path
         style="fill:#ffffff;fill-opacity:1;stroke:none;stroke-width:0.319;stroke-opacity:1"
         d="m 88.24238,45.475591 c 0,0 0.61347,2.965098 -0.51122,8.179581 -1.1247,5.21448 -2.83729,10.198911 -1.50811,12.95952 1.32918,2.760607 3.27183,5.112237 5.00999,3.987546 1.73816,-1.124693 6.824837,-8.971977 7.847277,-10.403404 1.022453,-1.431425 5.418983,-12.371615 7.054893,-13.905286 1.63592,-1.53367 7.97509,-8.077335 9.30427,-9.917739 1.32918,-1.840408 2.76061,-4.29428 2.76061,-4.29428 L 112.88336,9.587685 c 0,0 -33.22954,6.543663 -34.45647,7.463866 -1.22694,0.920203 -5.72571,7.463866 -7.87285,8.793048 -2.14714,1.329182 -7.7706,4.396525 -8.48631,7.566112 -0.71572,3.169586 -0.20449,4.907748 0,5.725705 0.20448,0.817959 5.52121,6.748152 8.48631,7.054889 2.9651,0.306734 7.46387,0 8.38407,0 0.9202,0 9.30427,-0.715714 9.30427,-0.715714 z"
         id="path3783-1"
         sodipodi:nodetypes="cssssssccssssssc" /><path
         style="fill:url(#linearGradient14150);fill-opacity:1;stroke:none;stroke-width:0.319;stroke-opacity:1"
         d="m 62.119322,38.808955 c 0,0 -0.424905,5.21296 -0.802336,10.030819 -0.377431,4.81786 0.658637,11.077376 1.964683,13.905017 1.306053,2.827635 3.400654,5.868452 3.400654,5.868452 0,0 0.628114,-0.764001 2.067511,-0.497177 1.439404,0.266814 7.600016,-2.563904 7.600016,-2.563904 0,0 1.649251,-6.898914 1.183578,-8.931648 -0.465665,-2.032739 -0.210198,-14.260559 -0.210198,-14.260559 -4.911523,-5.112595 -9.528549,-7.79254 -15.203908,-3.551 z"
         id="path3279-4"
         sodipodi:nodetypes="csscscscc"
         inkscape:transform-center-x="0.52541564"
         inkscape:transform-center-y="11.573611" /><path
         style="fill:url(#linearGradient14152);fill-opacity:1;stroke:none;stroke-width:0.33022;stroke-opacity:1"
         d="m 75.2573,46.474701 c 0,0 5.78897,-6.718696 7.75308,-6.718696 1.96411,0 5.47884,-0.108364 5.47884,-0.108364 l -0.20675,6.068497 c 0,0 -8.26995,1.517125 -13.02517,0.758563 z"
         id="path7382-8" /><path
         style="fill:url(#linearGradient14154);fill-opacity:1;stroke:none;stroke-width:0.319;stroke-opacity:1"
         d="m 88.44687,47.418242 c 0,0 0,3.169586 -1.43143,9.202025 -1.43142,6.032442 -2.14714,9.406517 0.30674,12.167127 2.45387,2.760607 3.06734,3.47632 6.13468,-0.613469 3.06735,-4.089791 4.907747,-6.441418 6.134687,-9.099782 1.226943,-2.658364 3.783053,-7.872847 4.294283,-8.997537 0.51122,-1.124694 -15.43896,-2.658364 -15.43896,-2.658364 z"
         id="path12507-6" /></g></g></svg>
