<?xml version="1.0" encoding="UTF-8" standalone="no"?>
<!-- Created with Inkscape (http://www.inkscape.org/) -->

<svg
   xmlns:dc="http://purl.org/dc/elements/1.1/"
   xmlns:cc="http://creativecommons.org/ns#"
   xmlns:rdf="http://www.w3.org/1999/02/22-rdf-syntax-ns#"
   xmlns:svg="http://www.w3.org/2000/svg"
   xmlns="http://www.w3.org/2000/svg"
   xmlns:sodipodi="http://sodipodi.sourceforge.net/DTD/sodipodi-0.dtd"
   xmlns:inkscape="http://www.inkscape.org/namespaces/inkscape"
   width="210mm"
   height="297mm"
   viewBox="0 0 210 297"
   version="1.1"
   id="svg2377"
   inkscape:version="0.92.4 (5da689c313, 2019-01-14)"
   sodipodi:docname="title.svg">
  <defs
     id="defs2371" />
  <sodipodi:namedview
     id="base"
     pagecolor="#ffffff"
     bordercolor="#666666"
     borderopacity="1.0"
     inkscape:pageopacity="0.0"
     inkscape:pageshadow="2"
     inkscape:zoom="0.7"
     inkscape:cx="259.80964"
     inkscape:cy="565.1114"
     inkscape:document-units="mm"
     inkscape:current-layer="layer1"
     showgrid="false"
     inkscape:window-width="1920"
     inkscape:window-height="1009"
     inkscape:window-x="-8"
     inkscape:window-y="-8"
     inkscape:window-maximized="1" />
  <metadata
     id="metadata2374">
    <rdf:RDF>
      <cc:Work
         rdf:about="">
        <dc:format>image/svg+xml</dc:format>
        <dc:type
           rdf:resource="http://purl.org/dc/dcmitype/StillImage" />
        <dc:title />
      </cc:Work>
    </rdf:RDF>
  </metadata>
  <g
     inkscape:label="Calque 1"
     inkscape:groupmode="layer"
     id="layer1">
    <path
       style="fill:#f9f9f9;fill-opacity:1;stroke:none;stroke-width:0.25707597"
       d="M 98.25,19.293489 C 97.791314,19.01436 96.575446,18.103067 95.548083,17.268393 92.312944,15.355932 93.518864,15.860913 90.191834,15.022295 82.488327,13.080526 72.728729,12.089933 61.177906,12.077393 50.330713,12.065706 47.222915,12.349654 42.879199,13.749806 38.779872,15.071179 33.925271,17.459432 32.12566,19.040083 l -1.389704,1.220612 0.188883,-1.004892 c 0.103887,-0.552689 0.402431,-1.422651 0.663425,-1.933245 0.504635,-0.987253 2.370593,-2.819514 2.871364,-2.819514 0.164707,0 0.235377,-0.06398 0.157071,-0.142146 -0.390469,-0.3897 -10.8766,1.999208 -15.900643,3.622418 C 13.068257,19.808057 10.19847,19.622802 7.5087882,17.259845 6.2764563,16.177213 5.5383213,15.576387 5.4050099,13.019874 5.2719931,10.73339 6.0518142,9.6196923 7.1269881,7.9824274 8.4180265,6.0164562 10.121144,4.0490686 10.344383,4.2657919 c 0.09302,0.090316 -0.01108,0.8582148 -0.231252,1.7064412 -0.8873697,3.4178095 -0.3417928,5.9616729 1.558434,7.2665219 2.631081,1.806716 4.239189,1.896246 11.08639,0.617229 21.212506,-3.9623728 31.644498,-5.1696021 42.537188,-4.9225635 9.984097,0.2264284 19.721619,1.7123935 26.37592,4.0249985 3.4628,1.203446 3.482674,1.198197 1.693111,-0.44736 -0.908674,-0.835549 -1.540571,-1.587997 -1.404221,-1.672105 0.416329,-0.256815 3.051454,0.954874 4.77331,2.194859 2.148107,1.546944 2.387056,2.49535 2.969247,3.656086 1.3417,2.675072 0.6633,3.891111 -1.452489,2.603587 z"
       id="path821"
       inkscape:connector-curvature="0"
       sodipodi:nodetypes="ccscsscccscsccsccsssscccccc"
       inkscape:export-xdpi="96"
       inkscape:export-ydpi="96" />
    <path
       style="fill:#f9f9f9;fill-opacity:1;stroke:none;stroke-width:0.25658691"
       d="m 112.56045,19.114765 c 0.45695,-0.279129 1.66819,-1.190422 2.69166,-2.025096 3.22283,-1.912461 2.0215,-1.40748 5.33588,-2.246098 7.67422,-1.941769 17.39673,-2.932362 28.90365,-2.944903 10.80596,-0.01168 13.90194,0.272262 18.22915,1.672414 4.08374,1.321373 8.91989,3.709626 10.71266,5.290276 l 1.38442,1.220613 -0.18818,-1.004892 c -0.1035,-0.55269 -0.40089,-1.422651 -0.66089,-1.933245 -0.50272,-0.987253 -2.36159,-2.819515 -2.86046,-2.819515 -0.16405,0 -0.23451,-0.06398 -0.15645,-0.142145 0.38898,-0.389699 10.83528,1.999208 15.84019,3.622419 5.62635,1.824741 8.48524,1.639485 11.16468,-0.723472 1.22763,-1.082632 1.96298,-1.683458 2.09578,-4.239971 0.13271,-2.286483 -0.64435,-3.4001814 -1.71546,-5.0374463 -1.28612,-1.9659712 -2.98277,-3.9333585 -3.20511,-3.7166355 -0.0927,0.090316 0.0108,0.8582149 0.23052,1.7064412 0.88401,3.4178095 0.34052,5.9616736 -1.55253,7.2665226 -2.62106,1.806715 -4.22304,1.896245 -11.04422,0.617228 -21.13187,-3.9623733 -31.52422,-5.1696026 -42.37551,-4.922564 -9.94613,0.226429 -19.64664,1.712393 -26.27565,4.024998 -3.44964,1.203446 -3.46943,1.198198 -1.68667,-0.447359 0.90522,-0.83555 1.53471,-1.587997 1.39888,-1.672106 -0.41476,-0.256815 -3.03986,0.954875 -4.75517,2.19486 -2.13994,1.546943 -2.37799,2.495349 -2.95796,3.656086 -1.3366,2.675071 -0.66077,3.89111 1.44697,2.60359 z"
       id="path821-2"
       inkscape:connector-curvature="0"
       sodipodi:nodetypes="ccscsscccscsccsccsssscccccc"
       inkscape:export-xdpi="96"
       inkscape:export-ydpi="96" />
    <path
       style="fill:#dcdcdc;fill-opacity:1;stroke:#dcdcdc;stroke-width:2.11394429px;stroke-linecap:butt;stroke-linejoin:miter;stroke-opacity:1"
       d="m 14.155026,34.103388 c 0,0 -6.7744099,4.744246 -7.9299199,6.534127 -1.15525,1.78991 8.1773899,6.278771 8.1773899,6.278771 0,0 2.30961,-0.263258 0.0927,-3.056905 -2.21699,-2.793618 -4.40847,-2.389527 -3.65061,-3.748462 0.75751,-1.358951 5.60389,-5.536269 3.31071,-6.007509 z"
       id="path1686"
       inkscape:connector-curvature="0"
       inkscape:export-xdpi="96"
       inkscape:export-ydpi="96" />
    <path
       style="fill:#dcdcdc;fill-opacity:1;stroke:#dcdcdc;stroke-width:2.11394429px;stroke-linecap:butt;stroke-linejoin:miter;stroke-opacity:1"
       d="m 11.295826,39.490776 c 0,0 16.22271,-2.053248 25.21898,4.348028 8.99618,6.401283 9.881,16.425927 9.881,20.290844 0,3.864928 -1.91717,9.541523 -2.50711,8.454522 -0.58976,-1.087009 0.7372,-8.696084 -0.14744,-13.889574 -1.32731,-6.884403 -5.22532,-11.724421 -8.84883,-13.88956 -6.34816,-3.793256 -10.47093,-3.744146 -18.28732,-3.744146 -7.8163899,0 -5.30928,-1.570114 -5.30928,-1.570114 z"
       id="path1692"
       inkscape:connector-curvature="0"
       sodipodi:nodetypes="ccsccssc"
       inkscape:export-xdpi="96"
       inkscape:export-ydpi="96" />
    <circle
       style="opacity:1;vector-effect:none;fill:none;fill-opacity:1;fill-rule:nonzero;stroke:#f9f9f9;stroke-width:5.15463591;stroke-linecap:butt;stroke-linejoin:miter;stroke-miterlimit:4;stroke-dasharray:none;stroke-dashoffset:0;stroke-opacity:1"
       id="path875"
       cx="38.797703"
       cy="110.75657"
       r="27.422682"
       inkscape:export-xdpi="96"
       inkscape:export-ydpi="96" />
    <path
       style="fill:#f9f9f9;fill-opacity:1;stroke:#f9f9f9;stroke-width:2.65911961px;stroke-linecap:butt;stroke-linejoin:miter;stroke-opacity:1"
       d="m 27.976238,106.8708 -7.288505,2.87702 3.996919,12.70691 7.288504,-2.87705 16.222783,4.5553 -10.580121,-29.729347 z"
       id="path877"
       inkscape:connector-curvature="0"
       inkscape:export-xdpi="96"
       inkscape:export-ydpi="96" />
    <path
       style="fill:none;stroke:#f9f9f9;stroke-width:2.65911961px;stroke-linecap:butt;stroke-linejoin:miter;stroke-opacity:1"
       d="m 44.19899,98.479445 3.291628,-5.514317"
       id="path879"
       inkscape:connector-curvature="0"
       inkscape:export-xdpi="96"
       inkscape:export-ydpi="96" />
    <path
       style="fill:none;stroke:#f9f9f9;stroke-width:2.65911961px;stroke-linecap:butt;stroke-linejoin:miter;stroke-opacity:1"
       d="m 47.020361,106.8708 7.523572,-3.35654"
       id="path881"
       inkscape:connector-curvature="0"
       inkscape:export-xdpi="96"
       inkscape:export-ydpi="96" />
    <path
       style="fill:none;stroke:#f9f9f9;stroke-width:2.65911961px;stroke-linecap:butt;stroke-linejoin:miter;stroke-opacity:1"
       d="m 49.841692,115.50188 h 7.053427"
       id="path883"
       inkscape:connector-curvature="0"
       inkscape:export-xdpi="96"
       inkscape:export-ydpi="96" />
    <circle
       style="opacity:1;vector-effect:none;fill:none;fill-opacity:1;fill-rule:nonzero;stroke:#717171;stroke-width:5.15463591;stroke-linecap:butt;stroke-linejoin:miter;stroke-miterlimit:4;stroke-dasharray:none;stroke-dashoffset:0;stroke-opacity:1"
       id="path875-2"
       cx="107.87588"
       cy="111.31486"
       r="27.422682"
       inkscape:export-xdpi="96"
       inkscape:export-ydpi="96" />
    <path
       style="fill:#f9f9f9;fill-opacity:1;stroke:#717171;stroke-width:2.65911961px;stroke-linecap:butt;stroke-linejoin:miter;stroke-opacity:1"
       d="m 97.054405,107.42908 -7.2885,2.87703 3.99691,12.70691 7.288515,-2.87705 16.22278,4.5553 -10.58012,-29.729348 z"
       id="path877-6"
       inkscape:connector-curvature="0"
       inkscape:export-xdpi="96"
       inkscape:export-ydpi="96" />
    <path
       style="fill:none;stroke:#6d6d6d;stroke-width:2.65911961px;stroke-linecap:butt;stroke-linejoin:miter;stroke-opacity:1"
       d="m 113.27716,99.037734 3.29163,-5.514317"
       id="path879-4"
       inkscape:connector-curvature="0"
       inkscape:export-xdpi="96"
       inkscape:export-ydpi="96" />
    <path
       style="fill:none;stroke:#6d6d6d;stroke-width:2.65911961px;stroke-linecap:butt;stroke-linejoin:miter;stroke-opacity:1"
       d="m 116.09853,107.42908 7.52358,-3.35653"
       id="path881-6"
       inkscape:connector-curvature="0"
       inkscape:export-xdpi="96"
       inkscape:export-ydpi="96" />
    <path
       style="fill:none;stroke:#6d6d6d;stroke-width:2.65911961px;stroke-linecap:butt;stroke-linejoin:miter;stroke-opacity:1"
       d="m 118.91986,116.06017 h 7.05343"
       id="path883-5"
       inkscape:connector-curvature="0"
       inkscape:export-xdpi="96"
       inkscape:export-ydpi="96" />
    <ellipse
       style="opacity:1;vector-effect:none;fill:none;fill-opacity:1;fill-rule:nonzero;stroke:#f9f9f9;stroke-width:4.66349268;stroke-linecap:butt;stroke-linejoin:miter;stroke-miterlimit:4;stroke-dasharray:none;stroke-dashoffset:0;stroke-opacity:1"
       id="path875-2-9"
       cx="107.7681"
       cy="111.32974"
       rx="24.833433"
       ry="24.786184"
       inkscape:export-xdpi="96"
       inkscape:export-ydpi="96" />
    <circle
       style="opacity:1;vector-effect:none;fill:none;fill-opacity:1;fill-rule:nonzero;stroke:#6d6d6d;stroke-width:5.15463591;stroke-linecap:butt;stroke-linejoin:miter;stroke-miterlimit:4;stroke-dasharray:none;stroke-dashoffset:0;stroke-opacity:1"
       id="path875-4"
       cx="177.40468"
       cy="111.12594"
       r="27.422682"
       inkscape:export-xdpi="96"
       inkscape:export-ydpi="96" />
    <path
       style="fill:#6d6d6d;fill-opacity:1;stroke:#6d6d6d;stroke-width:2.65911961px;stroke-linecap:butt;stroke-linejoin:miter;stroke-opacity:1"
       d="m 166.5832,107.24017 -7.28851,2.87702 3.99693,12.70691 7.2885,-2.87705 16.22279,4.5553 -10.58013,-29.729348 z"
       id="path877-3"
       inkscape:connector-curvature="0"
       inkscape:export-xdpi="96"
       inkscape:export-ydpi="96" />
    <path
       style="fill:none;stroke:#6d6d6d;stroke-width:2.65911961px;stroke-linecap:butt;stroke-linejoin:miter;stroke-opacity:1"
       d="m 182.80596,98.848814 3.29162,-5.514317"
       id="path879-1"
       inkscape:connector-curvature="0"
       inkscape:export-xdpi="96"
       inkscape:export-ydpi="96" />
    <path
       style="fill:none;stroke:#6d6d6d;stroke-width:2.65911961px;stroke-linecap:butt;stroke-linejoin:miter;stroke-opacity:1"
       d="m 185.62733,107.24017 7.52357,-3.35654"
       id="path881-5"
       inkscape:connector-curvature="0"
       inkscape:export-xdpi="96"
       inkscape:export-ydpi="96" />
    <path
       style="fill:none;stroke:#6d6d6d;stroke-width:2.65911961px;stroke-linecap:butt;stroke-linejoin:miter;stroke-opacity:1"
       d="m 188.44866,115.87125 h 7.05343"
       id="path883-9"
       inkscape:connector-curvature="0"
       inkscape:export-xdpi="96"
       inkscape:export-ydpi="96" />
  </g>
</svg>
